<svg xmlns="http://www.w3.org/2000/svg" width="102" height="21" viewBox="0 0 102 21">
    <g fill="#333" fill-rule="nonzero">
        <path d="M12.11 10.733L15.531 3h2.605l3.402 7.733h-3.011l-1.753-4.365-1.77 4.365zM5.764 16.543C2.597 16.543 0 14.957 0 10.777 0 6.32 2.919 4.91 5.615 4.91c2.796 0 5.616 1.41 5.616 5.817v.604H2.67c.075 1.939 1.015 3.122 3.142 3.122 1.46 0 2.474-.604 2.672-1.687h2.72c-.519 2.87-3.067 3.777-5.441 3.777zm-3.043-7.1H8.51C8.287 7.73 7.05 7 5.615 7c-1.434 0-2.671.73-2.894 2.442zm24.572 6.848L22.47 5.161h2.969l2.078 5.263 1.237 3.425 1.236-3.4 2.128-5.287h2.82l-4.824 11.13h-2.82zm10.25 0v-2.115h2.696V7.302h-2.697v-2.14h4.997V7.68c.47-1.234 1.559-2.77 3.71-2.77.817 0 1.56.202 2.054.478v2.72c-.544-.327-1.385-.529-2.103-.529-1.731 0-2.77.881-3.314 1.612v4.985h4.6v2.115h-9.944zM51.052 21v-2.216c2.375 0 3.538-.755 4.33-2.568L50.534 5.162h2.969l2.102 5.262 1.212 3.425 1.237-3.4 2.128-5.287h2.82l-4.577 10.575C56.743 19.59 55.135 21 51.054 21zm14.433-4.709V5.161h2.3v1.512c.52-.73 1.534-1.763 3.39-1.763 2.077 0 3.908.907 3.908 4.507v6.874h-2.647V9.946c0-1.813-.371-2.795-1.979-2.795-1.187 0-1.855.478-2.325 1.007v8.133h-2.647zm18.17.252c-3.167 0-5.764-1.586-5.764-5.766 0-4.457 2.919-5.867 5.615-5.867 2.796 0 5.616 1.41 5.616 5.817v.604h-8.56c.075 1.939 1.015 3.122 3.142 3.122 1.46 0 2.474-.604 2.672-1.687h2.72c-.519 2.87-3.066 3.777-5.441 3.777zm-3.043-7.1h5.789C86.179 7.73 84.942 7 83.507 7c-1.434 0-2.671.73-2.894 2.442zm17.676 7.1c-2.82 0-4.304-1.108-4.304-4.985V7.302h-3.488v-2.14h3.488V0h2.647v5.162H102v2.14h-5.368v4.155c0 2.09.396 2.82 2.226 2.82a6.999 6.999 0 0 0 2.721-.554v2.165c-.791.353-1.83.655-3.29.655z"/>
    </g>
</svg>
