<svg xmlns="http://www.w3.org/2000/svg" width="59" height="57" viewBox="0 0 59 57">
    <path fill="#5ABEBC" fill-rule="nonzero" d="M17.6 31v2.927c.954.246 1.854.626 2.682 1.115l2.072-2.073 3.677 3.677-2.073 2.072c.49.828.87 1.728 1.114 2.682H28v5.2h-2.928a10.328 10.328 0 0 1-1.114 2.682l2.073 2.072-3.677 3.677-2.072-2.073-.36.203c-.726.392-1.504.7-2.322.911V57h-5.2v-2.928a10.328 10.328 0 0 1-2.682-1.114l-2.072 2.073-3.677-3.677 2.073-2.072A10.333 10.333 0 0 1 4.928 46.6H2v-5.2h2.928c.245-.954.625-1.854 1.114-2.682l-2.073-2.072 3.677-3.677 2.072 2.073.36-.203c.726-.392 1.504-.7 2.322-.912V31h5.2zM15 39.667l-.21.005a4.334 4.334 0 0 0 .21 8.661l.21-.005a4.333 4.333 0 0 0-.21-8.661zM43.8 0v4.279c1.395.359 2.712.911 3.921 1.626l3.027-3.027 5.374 5.374-3.027 3.027a15.11 15.11 0 0 1 1.627 3.921H59v7.6h-4.278a15.101 15.101 0 0 1-1.627 3.921l3.027 3.027-5.374 5.374-3.027-3.027a15.102 15.102 0 0 1-3.921 1.627V38h-7.6v-4.278a15.102 15.102 0 0 1-3.921-1.627l-3.027 3.027-5.374-5.374 3.027-3.027a15.102 15.102 0 0 1-1.627-3.921H21v-7.6h4.279a15.102 15.102 0 0 1 1.626-3.92l-3.027-3.028 5.374-5.374 3.028 3.027A15.103 15.103 0 0 1 36.2 4.28V0h7.6zM40 12.667a6.334 6.334 0 1 0 0 12.667 6.334 6.334 0 0 0 0-12.667zM9 10v1.689c.55.142 1.07.36 1.547.643l1.196-1.196 2.12 2.121-1.195 1.196c.282.477.501.997.643 1.547H15v3h-1.689c-.142.55-.36 1.07-.643 1.547l1.196 1.196-2.121 2.12-1.196-1.195A5.963 5.963 0 0 1 9 23.311V25H6v-1.689a5.959 5.959 0 0 1-1.547-.643l-1.196 1.196-2.12-2.121 1.195-1.196A5.961 5.961 0 0 1 1.689 19H0v-3h1.689c.142-.55.36-1.07.643-1.547l-1.196-1.196 2.121-2.12 1.196 1.195A5.968 5.968 0 0 1 6 11.689V10h3zm-1.5 5a2.5 2.5 0 1 0 0 5 2.5 2.5 0 0 0 0-5z"/>
</svg>
