<svg width="98px" height="20px" viewBox="0 0 693 141" version="1.1">
    <g
    id="Brand"
    stroke="none"
    strokeWidth="1"
    fill="none"
    fillRule="evenodd"
    >
    <g
        id="Logo"
        transform="translate(-614.000000, -470.000000)"
        fill="#1E124F"
    >
        <g id="Group-2" transform="translate(614.000000, 470.000000)">
        <g id="Group" transform="translate(89.000000, 13.000000)">
            <path
            d="M0.617601671,43.0654206 L19.9794393,0 L34.7173832,0 L53.9618763,43.0654206 L36.9273242,43.0654206 L27.0134579,18.7573832 L17.0042661,43.0654206 L0.617601671,43.0654206 Z"
            id="Combined-Shape"
            ></path>
        </g>
        <path
            d="M39.144,110.376 C17.64,110.376 0,99.792 0,71.904 C0,42.168 19.824,32.76 38.136,32.76 C57.12,32.76 76.272,42.168 76.272,71.568 L76.272,75.6 L18.144,75.6 C18.648,88.536 25.032,96.432 39.48,96.432 C49.392,96.432 56.28,92.4 57.624,85.176 L76.104,85.176 C72.576,104.328 55.272,110.376 39.144,110.376 Z M18.48,63 L57.792,63 C56.28,51.576 47.88,46.704 38.136,46.704 C28.392,46.704 19.992,51.576 18.48,63 Z M185.36,108.696 L152.6,34.44 L172.76,34.44 L186.872,69.552 L195.272,92.4 L203.672,69.72 L218.12,34.44 L237.272,34.44 L204.512,108.696 L185.36,108.696 Z M254.968,108.696 L254.968,94.584 L273.28,94.584 L273.28,48.72 L254.968,48.72 L254.968,34.44 L288.904,34.44 L288.904,51.24 C292.096,43.008 299.488,32.76 314.104,32.76 C319.648,32.76 324.688,34.104 328.048,35.952 L328.048,54.096 C324.352,51.912 318.64,50.568 313.768,50.568 C302.008,50.568 294.952,56.448 291.256,61.32 L291.256,94.584 L322.504,94.584 L322.504,108.696 L254.968,108.696 Z M346.728,140.112 L346.728,125.328 C362.856,125.328 370.752,120.288 376.128,108.192 L343.2,34.44 L363.36,34.44 L377.64,69.552 L385.872,92.4 L394.272,69.72 L408.72,34.44 L427.872,34.44 L396.792,105 C385.368,130.704 374.448,140.112 346.728,140.112 Z M444.744,108.696 L444.744,34.44 L460.368,34.44 L460.368,44.52 C463.896,39.648 470.784,32.76 483.384,32.76 C497.496,32.76 509.928,38.808 509.928,62.832 L509.928,108.696 L491.952,108.696 L491.952,66.36 C491.952,54.264 489.432,47.712 478.512,47.712 C470.448,47.712 465.912,50.904 462.72,54.432 L462.72,108.696 L444.744,108.696 Z M568.144,110.376 C546.64,110.376 529,99.792 529,71.904 C529,42.168 548.824,32.76 567.136,32.76 C586.12,32.76 605.272,42.168 605.272,71.568 L605.272,75.6 L547.144,75.6 C547.648,88.536 554.032,96.432 568.48,96.432 C578.392,96.432 585.28,92.4 586.624,85.176 L605.104,85.176 C601.576,104.328 584.272,110.376 568.144,110.376 Z M547.48,63 L586.792,63 C585.28,51.576 576.88,46.704 567.136,46.704 C557.392,46.704 548.992,51.576 547.48,63 Z M667.528,110.376 C648.376,110.376 638.296,102.984 638.296,77.112 L638.296,48.72 L614.608,48.72 L614.608,34.44 L638.296,34.44 L638.296,0 L656.272,0 L656.272,34.44 L692.728,34.44 L692.728,48.72 L656.272,48.72 L656.272,76.44 C656.272,90.384 658.96,95.256 671.392,95.256 C678.28,95.256 684.664,93.744 689.872,91.56 L689.872,106.008 C684.496,108.36 677.44,110.376 667.528,110.376 Z"
            id="evrynet"
        ></path>
        </g>
    </g>
    </g>
</svg>