<svg xmlns="http://www.w3.org/2000/svg" width="97" height="25" viewBox="0 0 97 25">
    <path fill="#FFF" fill-rule="nonzero" d="M24.616 3.265l-3.451 1.743L4.5 13.422a9.83 9.83 0 0 1-.085-1.285 9.825 9.825 0 0 1 4.908-8.478 10.003 10.003 0 0 1 9.86-.101l1.976-.998.294-.149a12.215 12.215 0 0 0-12.63-.98C4.76 3.484 2.203 7.62 2.204 12.14c0 .306.011.61.035.914a2.183 2.183 0 0 1-1.198 2.113L0 15.695v2.456l3.067-1.55.993-.502.978-.494L22.607 6.73l1.974-.996 4.08-2.062V1.22l-4.045 2.046zM28.66 6.13L6.036 17.55l-1.974.998L0 20.6v2.454l4.034-2.038 3.451-1.743 16.682-8.426a9.825 9.825 0 0 1-4.828 9.78 10.003 10.003 0 0 1-9.87.091l-.121.064-2.141 1.082a12.215 12.215 0 0 0 12.629.983c4.061-2.052 6.62-6.188 6.62-10.707 0-.308-.011-.617-.035-.923a2.184 2.184 0 0 1 1.197-2.113l1.043-.526V6.13zM62.74 7.835c-3.46 0-6.145 2.524-6.145 6.511 0 3.71 2.213 6.558 6.215 6.558 3.085 0 5.11-1.797 5.674-3.945H66.27c-.54 1.237-1.576 2.078-3.46 2.078-1.86 0-3.839-1.307-3.909-4.014h9.747c.26-3.99-2.025-7.188-5.909-7.188zm-3.815 5.367c.19-2.524 1.93-3.547 3.815-3.547 2.283 0 3.578 1.774 3.649 3.547h-7.464zm-15.36-2.31l-1.972-.444c-1.606-.351-2.789-1.096-2.789-2.59 0-1.891 2.304-2.474 3.626-2.474 1.698 0 3.673.677 4.238 2.613H49c-.684-3.245-3.395-4.62-6.475-4.62-2.755 0-6.169 1.377-6.169 4.62 0 2.8 2.33 4.109 4.686 4.622l2.128.443c2.142.49 3.673 1.19 3.673 2.987 0 1.683-1.436 2.848-3.979 2.848-2.66 0-4.26-1.214-4.708-3.547h-2.36c.447 3.366 2.99 5.554 7.016 5.554 3.395 0 6.498-1.774 6.498-5.065 0-3.406-3.13-4.387-5.745-4.947zM53.91 4.893h-2.143v3.151h-2.002v1.704h2.002v7.702c0 2.614.565 3.15 2.99 3.15h1.554v-1.773h-1.083c-1.225 0-1.318-.327-1.318-1.633V9.748h2.401V8.044H53.91v-3.15zm42.455 3.081c-1.673.07-2.943.842-3.579 2.264V8.044H90.69V20.6h2.142v-6.58c0-2.801.99-3.847 2.968-3.847.402 0 .803.031 1.2.094v-2.27a6.36 6.36 0 0 0-.635-.023zm-7.737 7.893l.023-2.895c.024-3.57-1.483-5.18-5.038-5.18-2.448 0-4.898 1.517-5.086 4.223h2.213c.095-1.562 1.107-2.496 2.896-2.496 1.602 0 2.873.746 2.873 3.057v.303c-5.18.56-8.57 1.442-8.57 4.411 0 2.31 1.978 3.618 4.356 3.618 2.26 0 3.555-.721 4.331-2.03.018.578.074 1.155.165 1.726h2.166c-.259-1.194-.353-2.617-.329-4.737zm-1.955-.513c0 2.963-1.906 3.874-3.908 3.874-1.53 0-2.448-.794-2.448-1.985 0-1.727 2.471-2.31 6.356-2.684v.795zM70.09 3.67h2.143v16.93H70.09V3.67zm4.284 0h2.143v16.93h-2.143V3.67z"/>
</svg>
