<svg xmlns="http://www.w3.org/2000/svg" width="29" height="19" viewBox="0 0 29 19">
    <g fill="#FFF" fill-rule="nonzero">
        <path d="M4.125 6.921h14c.667 0 1.208-.516 1.208-1.153s-.54-1.154-1.208-1.154h-14L6.896 1.97c.472-.45.472-1.18 0-1.631a1.25 1.25 0 0 0-1.709 0L.354 4.952a1.176 1.176 0 0 0-.08.085c-.012.013-.022.027-.032.04l-.039.05-.032.05c-.01.016-.02.031-.028.047-.01.017-.018.035-.027.053-.008.016-.017.032-.024.05-.008.017-.014.034-.02.051l-.02.055c-.006.017-.01.035-.014.052l-.015.058-.01.06-.007.051a1.108 1.108 0 0 0 0 .228l.008.05c.003.02.005.041.01.061.003.02.009.038.014.057l.014.053.02.055.02.051c.007.017.016.034.024.05l.027.053.028.046c.011.017.02.034.032.05l.039.05a1.171 1.171 0 0 0 .112.125l4.833 4.615a1.25 1.25 0 0 0 1.709 0c.472-.45.472-1.181 0-1.632l-2.77-2.645zM28.726 13.963c.012-.013.022-.027.033-.041.012-.016.026-.032.038-.05l.032-.05c.01-.015.02-.03.028-.046.01-.017.018-.035.027-.053.008-.016.017-.033.024-.05l.02-.051.02-.055.014-.052.015-.058.01-.06.007-.051a1.108 1.108 0 0 0 0-.228l-.008-.05c-.003-.02-.005-.041-.01-.061-.003-.02-.009-.038-.014-.057l-.014-.053-.02-.055-.02-.051c-.007-.017-.016-.034-.024-.05l-.027-.053-.028-.046c-.01-.017-.02-.034-.032-.05l-.038-.05c-.011-.014-.021-.028-.033-.041a1.176 1.176 0 0 0-.08-.085l-4.833-4.614a1.25 1.25 0 0 0-1.709 0 1.117 1.117 0 0 0 0 1.632l2.77 2.645H10.876c-.667 0-1.208.516-1.208 1.153s.54 1.154 1.208 1.154h14l-2.771 2.645a1.117 1.117 0 0 0 0 1.631 1.25 1.25 0 0 0 1.709 0l4.833-4.614.001-.001c.028-.027.054-.055.08-.084z"/>
    </g>
</svg>
